<?xml version="1.0" standalone="no"?>
<!DOCTYPE svg PUBLIC "-//W3C//DTD SVG 20010904//EN"
 "http://www.w3.org/TR/2001/REC-SVG-20010904/DTD/svg10.dtd">
<svg version="1.0" xmlns="http://www.w3.org/2000/svg"
 width="500.000000pt" height="500.000000pt" viewBox="0 0 500.000000 500.000000"
 preserveAspectRatio="xMidYMid meet">

<g transform="translate(0.000000,500.000000) scale(0.100000,-0.100000)"
fill="#000000" stroke="none">
<path d="M760 2500 l0 -480 1345 0 1345 0 0 480 0 480 -1345 0 -1345 0 0 -480z
m2660 0 l0 -450 -1320 0 -1320 0 0 450 0 450 1320 0 1320 0 0 -450z"/>
<path d="M850 2500 l0 -390 760 0 760 0 0 390 0 390 -760 0 -760 0 0 -390z
m470 129 c0 -7 -32 -58 -71 -115 l-70 -104 70 0 c56 0 71 -3 71 -15 0 -12 -17
-15 -90 -15 -75 0 -90 3 -90 16 0 8 29 57 65 109 36 51 65 96 65 99 0 3 -29 6
-65 6 -51 0 -65 3 -65 15 0 12 17 15 90 15 61 0 90 -4 90 -11z m249 -113 c28
-69 51 -127 51 -130 0 -3 -7 -6 -16 -6 -8 0 -20 14 -25 30 -11 29 -13 30 -76
30 -63 0 -65 -1 -76 -30 -7 -18 -19 -30 -29 -30 -17 0 -17 3 -5 33 7 17 31 76
53 129 27 68 44 98 55 98 12 0 32 -36 68 -124z m281 109 c0 -12 -13 -15 -60
-15 l-60 0 0 -45 0 -45 55 0 c42 0 55 -3 55 -15 0 -12 -13 -15 -55 -15 l-55 0
0 -55 c0 -42 -3 -55 -15 -55 -13 0 -15 21 -15 130 l0 130 75 0 c60 0 75 -3 75
-15z m238 3 c-3 -8 -27 -14 -61 -16 l-57 -3 0 -44 0 -45 55 0 c42 0 55 -3 55
-15 0 -12 -13 -15 -55 -15 l-55 0 0 -55 c0 -42 -3 -55 -15 -55 -13 0 -15 21
-15 130 l0 130 76 0 c56 0 75 -3 72 -12z"/>
<path d="M1485 2554 c-39 -91 -40 -84 16 -84 56 0 56 -1 19 83 l-18 40 -17
-39z"/>
<path d="M2630 2510 l0 -130 40 0 40 0 0 130 0 130 -40 0 -40 0 0 -130z"/>
<path d="M2760 2510 l0 -130 40 0 40 0 0 40 0 40 45 0 c43 0 45 1 45 30 0 29
-2 30 -45 30 -41 0 -45 2 -45 24 0 23 5 25 48 28 45 3 47 4 50 36 l3 32 -90 0
-91 0 0 -130z"/>
<path d="M2960 2633 c0 -5 20 -43 45 -87 35 -60 45 -89 45 -122 0 -44 0 -44
35 -44 35 0 35 0 35 44 0 33 11 63 45 124 25 44 45 83 45 86 0 3 -18 6 -40 6
-38 0 -42 -3 -62 -45 l-22 -46 -23 46 c-22 42 -26 45 -63 45 -22 0 -40 -3 -40
-7z"/>
</g>
</svg>
